PathFileType	4	(X/Y/Z)	OpenSim_Sub01_EMGStiffKnee_Accel.trc
DataRate	CameraRate	NumFrames	NumMarkers	Units	OrigDataRate	OrigDataStartFrame	OrigNumFrames
100	100	41	8	m	100	2784	5567
Frame#	Time	torso_imu_offset_imu	pelvis_imu_offset_imu	tibia_r_imu_offset_imu	femur_r_imu_offset_imu	tibia_l_imu_offset_imu	femur_l_imu_offset_imu	toes_r_imu_offset_imu	toes_l_imu_offset_imu
				X1	Y1	Z1	X2	Y2	Z2	X3	Y3	Z3	X4	Y4	Z4	X5	Y5	Z5	X6	Y6	Z6	X7	Y7	Z7	X8		Y8	Z8	

2784	27.83000000	7.42005930	1.25503186	5.95004637	7.54984473	2.18000370	3.25201117	8.97194138	7.00245336	-2.61608968	9.82083070	4.16930128	1.22793873	9.18221217	-4.49674701	-0.98890944	8.67743180	-2.67114898	-3.65337777	10.32144626	-8.22697916	18.19379535	5.79981766	1.16828986	10.98490364
2785	27.84000000	7.59890383	1.12635055	5.89077385	7.76502552	1.78123444	3.43172020	8.58236999	7.67072573	-2.27991859	10.69497939	4.79831874	0.96076505	8.91038455	-3.96325107	-0.12058833	8.88554782	-2.68256488	-3.56400563	4.97904377	-10.10297421	20.51629350	5.44102107	0.99871291	10.97596875
2786	27.85000000	8.08461447	0.85215839	5.93585661	8.28721109	1.20418983	3.73597464	8.12421139	6.58180576	-0.79242359	11.61537215	4.60054810	0.45067803	9.24049367	-3.56528655	-0.10402377	9.43165294	-2.17168283	-2.88580032	-0.46779391	-10.81792681	19.32890927	5.18063708	0.99619222	11.11696879
2787	27.86000000	8.64829801	0.52723442	6.06781995	8.88312568	0.60168886	4.05046409	7.48593791	4.70828231	0.99192514	12.18424249	3.69032794	-0.00712864	9.83905763	-3.12415000	-0.59469597	10.00199057	-1.19057295	-1.99385233	-4.39171932	-10.64596080	16.63599401	5.13162372	1.10606324	11.27202040
2788	27.87000000	9.04524374	0.26281213	6.26184295	9.31246927	0.12204927	4.25461586	6.59206859	3.22601829	2.04395058	12.01321500	2.25775558	-0.08633408	10.23348847	-2.41747256	-1.06547562	10.21970978	0.15969808	-1.32736768	-5.27902392	-10.02573108	14.98140511	5.37893405	1.25313799	11.28012265
2789	27.88000000	9.20072018	0.10093663	6.44467278	9.48005848	-0.20672513	4.31812836	5.63235529	2.38713083	2.12724709	11.19862485	0.70072699	0.19744314	10.27483023	-1.51971232	-1.30587240	10.03448047	1.53457162	-1.02711704	-3.73060874	-9.04291884	14.78107110	5.75833694	1.39049916	11.14268145
2790	27.89000000	9.17084525	0.03038891	6.50581403	9.40244735	-0.44923796	4.28018819	5.00062691	1.73280951	1.61568489	10.20987115	-0.42307198	0.56541120	10.06328340	-0.73376253	-1.34915964	9.64731326	2.40220527	-1.00413058	-1.97462187	-7.51161453	14.81314421	5.91389928	1.49300097	10.98609758
2791	27.90000000	9.01391710	0.03491355	6.38734360	9.13404686	-0.65858346	4.17825315	4.96369105	1.01649208	0.89729701	9.43676854	-0.78262208	0.80160632	9.73710892	-0.28501177	-1.25392208	9.24498028	2.43405479	-1.15775514	-1.50667501	-5.41027676	14.22170183	5.64464949	1.54755244	10.90516716
2792	27.91000000	8.78471075	0.08736116	6.19039974	8.83321627	-0.84657803	4.03933269	5.39532283	0.67663511	0.35555358	9.00413729	-0.73263955	0.89686906	9.52861710	-0.15108907	-1.13532307	8.95273372	1.91997560	-1.37018161	-1.52132623	-3.22653034	13.36332316	5.22472484	1.57521845	10.89122135
2793	27.92000000	8.53668535	0.15917467	6.03903457	8.66805685	-1.01402368	3.88587527	6.09490599	1.23618522	0.34263425	8.97576261	-0.73154523	0.88190949	9.66274874	-0.26479704	-1.10913987	8.87609082	1.25427732	-1.52718754	-0.85870791	-1.51607268	12.78578592	4.99921491	1.60153038	10.91501625
2794	27.93000000	8.31335772	0.23087174	5.96012863	8.66487484	-1.11110548	3.70098785	6.83600252	2.58725961	0.75514321	9.23525033	-0.89245401	0.81189577	9.99399494	-0.57360943	-1.14381550	8.99546513	0.68345981	-1.61567772	0.57862183	-0.44460050	12.54347327	5.06051466	1.62436195	10.92567092
2795	27.94000000	8.15058550	0.28995868	5.90577352	8.74083373	-1.04907895	3.43752081	7.37239296	4.13645285	1.13910481	9.52755473	-1.06269038	0.76081169	10.09182050	-1.03627803	-1.09442929	9.19497116	0.34018393	-1.70038076	2.07043665	0.12239728	12.31103880	5.30648643	1.62030800	10.85568439
2796	27.95000000	8.07663464	0.32796254	5.84455247	8.82532477	-0.78518730	3.08538336	7.58501567	5.39868424	1.19479686	9.66154599	-1.11827126	0.78694608	9.71293658	-1.59087193	-0.88552320	9.36421744	0.28149644	-1.81598064	3.12655116	0.30657377	11.86824090	5.61962122	1.58131416	10.68510789
2797	27.96000000	8.09779856	0.34782342	5.79976884	8.89241546	-0.41629817	2.74691487	7.73416047	6.24786264	1.10764588	9.64661329	-1.04078673	0.90051307	9.19222829	-2.11314113	-0.65670694	9.41649821	0.34846414	-1.90193768	4.00282730	0.16842923	11.33617338	5.85160442	1.54656626	10.53656066
2798	27.97000000	8.21423317	0.35408549	5.80253023	8.92712403	-0.06267420	2.53692043	8.12643490	6.62642216	1.13794311	9.52843898	-0.83357083	1.10117508	8.94641285	-2.47804040	-0.57577427	9.28073090	0.35277571	-1.88674935	5.07056567	-0.24056431	10.89070054	5.86217571	1.56049073	10.54714163
2799	27.98000000	8.39504516	0.34372040	5.84934022	8.95473014	0.19162364	2.44569994	8.71205137	6.50902108	1.32405202	9.34103873	-0.53325201	1.36370379	9.01718551	-2.72102635	-0.63726826	9.05407788	0.26402806	-1.79830527	6.36449003	-0.83484972	10.58293819	5.71681192	1.61524258	10.67620608
2800	27.99000000	8.58544481	0.30787861	5.91007136	9.03147790	0.29042783	2.36773828	9.16697847	5.89517662	1.53351544	9.10944753	-0.20208537	1.64371270	9.15759639	-3.00104655	-0.70240064	8.96313390	0.17336317	-1.74098367	7.66026086	-1.50264838	10.36796486	5.63929044	1.66275288	10.74633894
2801	28.00000000	8.73713819	0.24836078	5.96347332	9.17599619	0.21195205	2.23397929	9.30593291	4.85503122	1.65584159	8.85900441	0.10162585	1.89994891	9.17637138	-3.39578467	-0.67859465	9.12782649	0.15782791	-1.78973903	8.77233318	-2.15454148	10.19092019	5.75617720	1.67348266	10.65241680
2802	28.01000000	8.82295965	0.19905867	6.01670905	9.29277641	0.03443883	2.09102534	9.37687247	3.66668443	1.65886379	8.61663812	0.33327982	2.10193514	9.06973518	-3.73201593	-0.62077854	9.34123681	0.24329621	-1.92624895	9.65023850	-2.76955473	9.97475180	5.89308214	1.67602767	10.51457911
2803	28.02000000	8.82175570	0.19725258	6.08130411	9.27425443	-0.14875027	2.00345406	9.68615817	2.63691743	1.53040543	8.40874593	0.45303585	2.22289931	8.87440080	-3.80582101	-0.60469865	9.35493747	0.44341995	-2.11221496	10.27806431	-3.34082235	9.64678147	5.83669513	1.70463399	10.48501981
2804	28.03000000	8.74388280	0.24214831	6.15545893	9.14823223	-0.29475047	1.98484602	10.21550835	1.92637613	1.34072013	8.24937427	0.45439024	2.26169993	8.71420574	-3.64811790	-0.60953988	9.20360590	0.73053878	-2.26847998	10.78327965	-3.88323724	9.26117402	5.62391743	1.71726746	10.57239044
2805	28.04000000	8.62395500	0.30364614	6.22711768	9.04668425	-0.39957454	2.00952919	10.69678599	1.58321280	1.22345769	8.14306944	0.35649732	2.23691895	8.77997283	-3.47053754	-0.54018929	9.13978011	1.04518667	-2.28447274	11.40360745	-4.42839742	8.96966240	5.48419092	1.61321761	10.67486929
2806	28.05000000	8.49876716	0.35666704	6.28595297	9.06097709	-0.46697437	2.05756972	10.92864821	1.65471068	1.23581096	8.10426711	0.17279265	2.15828568	9.15379501	-3.40272127	-0.34650128	9.32337605	1.32253321	-2.10028780	12.21839202	-4.94898828	8.82578277	5.55551943	1.34908749	10.72225753
2807	28.06000000	8.40974003	0.39329049	6.32755717	9.15385196	-0.52072637	2.12908462	10.92732351	2.19416930	1.20294142	8.17751451	-0.10224236	2.00771691	9.58956283	-3.31687205	-0.11762605	9.62243822	1.48423930	-1.80897050	12.82794067	-5.24136412	8.58382967	5.68948909	1.05626778	10.74676523
2808	28.07000000	8.39631291	0.40973437	6.34889559	9.26549634	-0.58620736	2.22609539	10.74937377	3.23835564	0.92338342	8.40499395	-0.47686850	1.76470352	9.79974915	-3.05166488	0.03570343	9.85737549	1.45782869	-1.52864524	12.78926463	-5.08586588	7.96879229	5.69638014	0.88993767	10.79628285
2809	28.08000000	8.45547959	0.41667116	6.35110017	9.35445902	-0.65734452	2.32365146	10.45297413	4.56001754	0.43914739	8.71020123	-0.94794254	1.44937832	9.78504151	-2.65628060	0.06516330	9.94326585	1.29592153	-1.32956699	12.33675557	-4.51103390	7.09499352	5.56076757	0.87768707	10.87001939
2810	28.09000000	8.55156689	0.43589389	6.33851079	9.39343759	-0.70386506	2.37605285	10.09753249	5.72874190	-0.02038936	8.92530223	-1.50351648	1.11315766	9.76793666	-2.34187405	-0.02951707	9.86809436	1.14738788	-1.24511722	12.22601258	-3.73643917	6.37631738	5.40137879	0.94889941	10.92971686
2811	28.10000000	8.65828724	0.48063989	6.31621851	9.37439556	-0.70816385	2.35527176	9.73046094	6.41714757	-0.30261955	8.92694203	-2.09696571	0.80460013	9.89829657	-2.22581756	-0.23329188	9.66232532	1.09781307	-1.27651001	12.90580978	-2.94180082	6.03696501	5.31390455	1.04636199	10.94691283
2812	28.11000000	8.77973852	0.53787380	6.29130121	9.34546205	-0.69212635	2.28737801	9.36343258	6.61953328	-0.49737346	8.73091285	-2.57929983	0.56138170	10.09320068	-2.13443567	-0.48927691	9.47707405	1.03738000	-1.33219512	13.87337619	-2.17382000	5.71461277	5.31532987	1.16019700	10.92511534
2813	28.12000000	8.92416566	0.58961830	6.27129710	9.36072448	-0.68283571	2.20774025	9.00856281	6.39694030	-0.72833607	8.38628716	-2.79443886	0.42175495	10.23103600	-1.86095540	-0.73296536	9.47314483	0.83002342	-1.31311107	14.48989088	-1.45559896	4.96314403	5.40483400	1.28742642	10.87471742
2814	28.13000000	9.07780695	0.61663059	6.26513651	9.40804659	-0.67590038	2.14120906	8.78345431	5.91917349	-0.95507434	8.05516800	-2.76340872	0.46270623	10.25521109	-1.50852782	-0.90153753	9.62254619	0.48749357	-1.26443134	14.71319720	-0.82511485	3.70522517	5.53290165	1.39736479	10.82068849
2815	28.14000000	9.20996420	0.59870767	6.28281585	9.42432964	-0.64270869	2.10452556	8.88678965	5.43971159	-1.01089442	7.98657460	-2.64355402	0.79096257	10.15920887	-1.41876842	-0.93351004	9.75199623	0.13532759	-1.34229940	14.96033980	-0.33175484	2.14742012	5.61256441	1.43801896	10.79920488
2816	28.15000000	9.29523983	0.53415309	6.32702803	9.36729203	-0.56621040	2.09748581	9.35421669	5.14439442	-0.82880456	8.30563606	-2.57216273	1.41227460	9.96526988	-1.78584260	-0.81735849	9.74407529	-0.10027591	-1.62295149	15.51151275	0.02886200	0.51371833	5.59833729	1.38537860	10.82819428
2817	28.16000000	9.32528117	0.47633453	6.37868265	9.26040397	-0.46556039	2.07015489	9.73074117	5.01168255	-0.64772075	8.76270828	-2.61650650	2.03007624	9.77725815	-2.34755238	-0.68990559	9.65845932	-0.09985021	-1.93670378	16.20517005	0.42175625	-0.94181192	5.57086273	1.30021090	10.87050335
2818	28.17000000	9.29596378	0.48478242	6.41527287	9.13952648	-0.36691311	1.96677491	9.50750931	4.97674677	-0.74502087	9.05298487	-2.82659324	2.30649309	9.70685700	-2.77269791	-0.70333495	9.58311351	0.23877557	-2.07986037	16.81195428	1.01113043	-2.00124503	5.62571830	1.25466528	10.88187983
2819	28.18000000	9.21927691	0.55890908	6.42343335	9.04402657	-0.30099882	1.78203621	8.72709256	4.90071377	-1.12731738	9.08304840	-3.18780913	2.12189110	9.75694479	-2.96010108	-0.82928454	9.53937291	0.77759842	-2.02012275	17.30988693	1.50454890	-3.07066768	5.73303308	1.25667294	10.86422807
2820	28.19000000	9.11961300	0.65185774	6.39684302	9.01596418	-0.30205422	1.54947091	7.85646838	4.58782307	-1.59279785	8.92217518	-3.63577699	1.52465627	9.84666683	-2.98564518	-0.90044425	9.49729887	1.19382266	-1.85713105	17.83650454	1.25836219	-5.03590111	5.76640645	1.26474416	10.85497603
2821	28.20000000	9.02019877	0.72879518	6.33872803	9.08951564	-0.38307340	1.31244558	7.26447353	3.98967381	-1.94872004	8.59883897	-4.08169725	0.59168468	9.92648496	-2.91682721	-0.79417879	9.44993463	1.28416480	-1.68938733	18.36668328	0.02738209	-7.95736092	5.65104816	1.25518245	10.88203700
2822	28.21000000	8.93984903	0.79415165	6.28014500	9.27522597	-0.49366182	1.14058021	6.99588770	3.50008088	-2.04522411	8.00783634	-4.36800489	-0.52825489	10.04631588	-2.78269114	-0.53122118	9.46253145	1.21458709	-1.60192729	18.37977427	-1.22273806	-9.40616588	5.47290252	1.26094013	10.94233698
2823	28.22000000	8.90320337	0.85681952	6.25643827	9.57895666	-0.56943901	1.11129810	7.05634643	3.51612234	-1.74120360	7.06739055	-4.33130618	-1.66517792	10.27135974	-2.60298150	-0.16179968	9.61095013	1.20914129	-1.66963957	17.28554667	-1.39271135	-6.73296423	5.34179673	1.32065078	11.02727057
2824	28.23000000	9.03426239	0.88383867	6.29011837	10.00186392	-0.51211389	1.34615478	7.76225110	3.26034814	-0.90789760	6.41606474	-3.91122618	-2.53047988	10.62036879	-2.36467255	0.21913804	9.93004339	1.33958057	-1.85283657	14.82344853	-0.73339508	-0.87595591	5.28025798	1.40124252	11.13119033
